<?xml version="1.0" standalone="no"?>
<!DOCTYPE svg PUBLIC "-//W3C//DTD SVG 20010904//EN"
 "http://www.w3.org/TR/2001/REC-SVG-20010904/DTD/svg10.dtd">
<svg version="1.0" xmlns="http://www.w3.org/2000/svg"
 width="1024.000000pt" height="1024.000000pt" viewBox="0 0 1024.000000 1024.000000"
 preserveAspectRatio="xMidYMid meet">
<metadata>
Created by potrace 1.14, written by Peter Selinger 2001-2017
</metadata>
<g transform="translate(0.000000,1024.000000) scale(0.100000,-0.100000)"
fill="#000000" stroke="none">
<path d="M4859 9986 c-2 -2 -56 -6 -119 -10 -63 -3 -126 -8 -140 -10 -14 -2
-54 -7 -90 -11 -424 -40 -936 -175 -1300 -342 -343 -157 -718 -391 -1004 -625
-202 -165 -438 -403 -591 -596 -80 -101 -109 -139 -172 -227 -76 -108 -223
-331 -223 -339 0 -3 -15 -29 -34 -58 -133 -209 -325 -631 -430 -940 -36 -109
-111 -362 -120 -408 -3 -14 -14 -62 -25 -107 -24 -97 -25 -101 -56 -273 -29
-161 -32 -180 -45 -290 -6 -47 -12 -98 -15 -115 -13 -100 -20 -276 -20 -535 1
-264 5 -374 20 -520 3 -25 7 -70 10 -100 6 -65 19 -170 30 -230 2 -8 6 -42 10
-75 3 -32 8 -62 10 -65 2 -3 6 -23 9 -45 4 -22 18 -94 32 -160 14 -66 27 -131
30 -145 3 -14 12 -52 21 -85 8 -33 17 -68 19 -77 5 -22 7 -29 43 -160 168
-610 506 -1264 899 -1738 123 -149 331 -356 476 -475 27 -22 54 -45 60 -50 62
-58 367 -264 516 -350 126 -72 361 -188 480 -236 293 -118 660 -218 965 -264
22 -4 81 -13 130 -20 50 -7 126 -17 169 -20 43 -4 86 -8 96 -10 135 -26 1020
-26 1159 0 9 1 43 6 76 9 33 4 71 9 85 10 14 2 52 7 85 10 33 4 67 9 75 11 8
3 33 7 55 11 70 10 266 54 385 85 63 17 122 32 130 34 41 10 296 102 380 137
353 149 779 409 1069 653 150 126 314 282 441 421 221 243 482 605 640 889 18
33 42 76 53 95 217 385 447 1034 542 1525 5 22 9 45 11 50 5 23 24 134 29 175
3 25 8 56 10 70 9 58 26 209 33 289 9 117 8 656 -1 761 -19 206 -23 240 -47
395 -6 39 -13 86 -16 105 -2 19 -8 53 -13 75 -5 22 -14 65 -20 95 -18 87 -18
91 -46 200 -9 36 -18 76 -21 89 -3 14 -7 28 -10 33 -3 4 -7 18 -9 29 -22 111
-180 577 -252 739 -14 30 -31 71 -40 90 -52 118 -137 284 -228 445 -117 207
-321 499 -500 715 -101 122 -354 375 -470 471 -49 41 -92 76 -95 79 -14 16
-169 127 -266 191 -513 343 -1002 539 -1629 654 -16 3 -50 8 -75 10 -25 3 -54
7 -65 10 -11 2 -47 7 -80 10 -33 3 -70 8 -82 10 -12 2 -55 6 -95 10 -40 3 -93
8 -118 11 -56 6 -715 15 -721 10z"/>
</g>
</svg>
