<svg fill="none" height="80" viewBox="0 0 394 80" width="394" xmlns="http://www.w3.org/2000/svg"><g fill="#000"><path d="m261.919.0330722h68.628v12.6669278h-27.224v66.639h-13.613v-66.639h-27.791z"/><path d="m149.052.0330722v12.6669278h-55.0099v20.3772h44.2389v12.6669h-44.2389v20.928h55.0099v12.6669h-68.622v-66.639h-.0057v-12.6669278z"/><path d="m183.32.0661486h-17.814l63.806 79.3059514h17.866l-31.907-39.6257 31.856-39.619746-17.815.02753-22.96 28.515516z"/><path d="m201.6 56.7148-8.921-11.0919-27.224 33.8097h17.865z"/><path clip-rule="evenodd" d="m80.907 79.339-63.8919-79.339h-17.0151v79.3059h13.6121v-62.3543l50.1946 62.3874z" fill-rule="evenodd"/><path d="m333.607 78.8546c-.997 0-1.845-.3453-2.555-1.036s-1.061-1.5269-1.052-2.5175c-.009-.9634.342-1.7905 1.052-2.4812s1.558-1.0361 2.555-1.0361c.959 0 1.798.3454 2.508 1.0361.72.6907 1.079 1.5178 1.089 2.4812-.01.6543-.176 1.2541-.508 1.7903-.341.5454-.774.9726-1.319 1.2816-.535.3181-1.125.4816-1.77.4816z"/><path d="m356.84 45.4453h6.032v23.2393c-.009 2.1358-.471 3.9626-1.374 5.4986-.913 1.5359-2.177 2.7082-3.8 3.5353-1.614.8179-3.505 1.2361-5.654 1.2361-1.965 0-3.726-.3545-5.294-1.0452s-2.813-1.7268-3.726-3.0901c-.923-1.3633-1.375-3.0628-1.375-5.0986h6.042c.009.8907.212 1.6631.599 2.3084s.922 1.136 1.605 1.4814c.691.3454 1.485.5181 2.379.5181.969 0 1.799-.2 2.472-.609.673-.3999 1.19-.9997 1.55-1.7995.35-.7906.535-1.7722.544-2.9355z"/><path d="m387.691 54.5338c-.147-1.4087-.793-2.5084-1.918-3.29-1.135-.7907-2.601-1.1815-4.4-1.1815-1.263 0-2.351.1909-3.255.5635-.904.3817-1.605.8906-2.085 1.5359-.479.6453-.719 1.3815-.738 2.2086 0 .6907.166 1.2905.489 1.7904.323.5089.756.9361 1.319 1.2815.553.3544 1.171.6452 1.845.8815.682.2363 1.365.4363 2.047.5999l3.145.7725c1.264.2908 2.491.6817 3.662 1.1815 1.171.4908 2.232 1.1179 3.163 1.8722.932.7544 1.67 1.6632 2.214 2.7266.544 1.0633.821 2.3084.821 3.7444 0 1.9358-.498 3.6354-1.504 5.1077-1.005 1.4632-2.453 2.6084-4.353 3.4355-1.891.818-4.178 1.236-6.871 1.236-2.601 0-4.87-.3998-6.779-1.1996-1.918-.7907-3.413-1.9541-4.492-3.481-1.079-1.5268-1.66-3.39-1.743-5.5803h5.977c.083 1.1451.452 2.0995 1.079 2.872.636.7634 1.466 1.3269 2.481 1.7086 1.024.3726 2.167.5635 3.431.5635 1.319 0 2.481-.2 3.486-.5908.996-.3908 1.78-.936 2.343-1.6449.572-.6999.858-1.5269.867-2.4721-.009-.8634-.268-1.5815-.766-2.145-.507-.5634-1.208-1.036-2.103-1.4177-.903-.3817-1.955-.7271-3.154-1.027l-3.818-.9634c-2.758-.6998-4.944-1.7631-6.54-3.19-1.604-1.4269-2.398-3.3173-2.398-5.6894 0-1.9449.535-3.6535 1.615-5.1168 1.069-1.4632 2.536-2.5993 4.39-3.4082 1.863-.8179 3.966-1.2179 6.308-1.2179 2.38 0 4.464.4 6.263 1.2179 1.798.8089 3.21 1.9359 4.233 3.3718 1.024 1.436 1.559 3.081 1.587 4.9441z"/></g></svg>