<svg fill="none" height="1000" viewBox="0 0 4438 1000" width="4438" xmlns="http://www.w3.org/2000/svg"><path d="m2223.75 250c-172.5 0-296.88 112.5-296.88 281.25s139.85 281.25 312.51 281.25c104.21 0 196.09-41.25 252.96-110.781l-119.53-69.063c-31.56 34.532-79.53 54.688-133.43 54.688-74.85 0-138.44-39.063-162.04-101.563h437.82c3.43-17.5 5.47-35.625 5.47-54.687 0-168.594-124.22-281.094-296.88-281.094zm-147.66 226.562c19.53-62.343 72.97-101.562 147.66-101.562 74.84 0 128.28 39.219 147.66 101.562zm-35.31-398.437-432.97 750-433.12-750h162.34l270.63 468.75 270.62-468.75zm-1463.436-78.125 577.346 1000h-1154.69zm2571.406 531.25c0 93.75 61.25 156.25 156.25 156.25 64.38 0 112.66-29.219 137.5-76.875l120 69.219c-49.69 82.812-142.81 132.656-257.5 132.656-172.66 0-296.87-112.5-296.87-281.25s124.37-281.25 296.87-281.25c114.69 0 207.66 49.844 257.5 132.656l-120 69.219c-24.84-47.656-73.12-76.875-137.5-76.875-94.84 0-156.25 62.5-156.25 156.25zm1288.75-453.125v718.75h-140.62v-718.75zm-531.25 171.875c-172.5 0-296.87 112.5-296.87 281.25s140 281.25 312.5 281.25c104.21 0 196.09-41.25 252.96-110.781l-119.53-69.063c-31.56 34.532-79.53 54.688-133.43 54.688-74.85 0-138.44-39.063-162.04-101.563h437.82c3.43-17.5 5.46-35.625 5.46-54.687 0-168.594-124.21-281.094-296.87-281.094zm-147.66 226.562c19.54-62.343 72.82-101.562 147.66-101.562s128.28 39.219 147.66 101.562zm-797.34-210.937v151.406c-15.62-4.531-32.19-7.656-50-7.656-90.78 0-156.25 62.5-156.25 156.25v231.25h-140.62v-531.25h140.62v143.75c0-79.375 92.34-143.75 206.25-143.75z" fill="#000"/></svg>