<svg fill="none" height="69" viewBox="0 0 962 69" width="962" xmlns="http://www.w3.org/2000/svg"><g fill="#1e293b"><path d="m24.6778 67.7932-15.68801-47.1523c-.88136-2.644-1.58644-4.7887-2.11525-6.4339-.47005-1.6452-.79322-3.0553-.96949-4.23045-.94011.05875-1.82146.08815-2.64405.08815-.8226 0-1.64519.0294-2.467787.0881v-4.84742h22.915187v3.87795c-2.9966.11751-4.9062.76384-5.7288 1.93897-.7639 1.1751-.7051 3.4079.1762 6.6983.9989 3.7017 2.0272 7.1389 3.0848 10.3118s2.1152 6.522 3.1728 10.0474c.7051 2.409 1.4102 4.6712 2.1153 6.7864.7638 2.0565 1.5277 4.4655 2.2915 7.2271h.0881c.2938-.9401.617-2.0565.9695-3.3491.4113-1.2927.8226-2.6147 1.2339-3.9661.4113-1.4102.7932-2.6735 1.1458-3.7898.3525-1.1752.6169-2.0565.7932-2.6441 1.4102-4.4655 2.7909-8.8429 4.1423-13.1321 1.4102-4.2893 2.6735-8.1672 3.7899-11.6339 1.1163-3.4666 1.9683-6.28695 2.5559-8.46095h4.583c.5876 2.174 1.3514 4.72992 2.2915 7.66775.9989 2.8791 1.9978 5.8757 2.9966 8.9898.9989 3.0554 1.9684 6.0226 2.9085 8.9017.9401 2.8203 1.7333 5.2881 2.3796 7.4033.7639 2.409 1.5277 4.8474 2.2915 7.3152.8226 2.4091 1.5571 4.9062 2.2034 7.4915h.1763c.5288-1.7627 1.087-3.6135 1.6746-5.5525.6463-1.9977 1.2632-4.0248 1.8508-6.0813 1.1751-3.4079 2.1446-6.3458 2.9085-8.8135.8226-2.4678 1.4983-4.6125 2.0271-6.4339.5288-1.8215.9988-3.4667 1.4101-4.9356.4701-1.4689.9401-2.9084 1.4102-4.3186.3525-1.1164.7638-2.2915 1.2339-3.5254.47-1.2927 1.0576-2.4384 1.7627-3.43728-1.1164.05875-2.3209.11748-3.6135.17628-1.2339 0-2.3503.0294-3.3492.0881v-4.84742h18.5084v3.87795c-1.7627.17627-3.2316.58757-4.4068 1.23387-1.1163.6463-2.1152 1.7921-2.9966 3.4373-.8813 1.5864-1.8802 3.9661-2.9965 7.1389-2.5853 7.9322-5.1413 15.7762-7.6678 23.5321-2.4678 7.7559-5.0237 15.5118-7.6678 23.2677h-4.4067l-12.339-36.0473c-.6463-1.7627-1.2338-3.496-1.7627-5.1999-.47-1.7627-.9401-3.4667-1.4101-5.1119-.4113 1.6452-.852 3.2904-1.3221 4.9356-.47 1.5864-.9694 3.2022-1.4983 4.8474l-11.7219 36.5761z"/><path d="m89.0847 63.2983c1.7627 0 2.9966-.4113 3.7017-1.2339s1.1163-1.9683 1.2339-3.4372c.1762-1.4689.2644-3.1729.2644-5.1119v-18.3321c0-.9401 0-1.939 0-2.9966.0587-1.1164.1762-2.2034.3525-3.261-.9989.0588-2.0565.1175-3.1729.1763-1.1163 0-2.1446.0294-3.0847.0881v-4.6711h2.9966c2.4678 0 4.348-.2645 5.6407-.7933 1.2926-.5288 2.2327-1.087 2.8203-1.6745h3.1728c.118.8226.206 1.9683.264 3.4372.059 1.469.118 3.1142.177 4.9356 1.116-1.6452 2.409-3.1141 3.878-4.4067 1.469-1.3515 3.055-2.4385 4.759-3.2611 1.763-.8225 3.584-1.2338 5.464-1.2338 1.822 0 3.379.4994 4.672 1.4983 1.351.9401 2.027 2.4971 2.027 4.6711 0 .5876-.177 1.2633-.529 2.0271-.294.7639-.823 1.4396-1.587 2.0271-.705.5289-1.674.7933-2.908.7933-1.234-.0588-2.321-.5289-3.261-1.4102-.881-.8814-1.293-2.0859-1.234-3.6136-1.41 0-2.82.4407-4.23 1.3221-1.411.8226-2.733 1.939-3.967 3.3491-1.175 1.4102-2.174 2.9379-2.996 4.583v19.3016c0 1.0577-.03 2.1447-.088 3.261 0 1.0577-.088 2.1447-.265 3.2611.94-.0588 1.91-.0882 2.909-.0882.999-.0587 1.909-.1175 2.732-.1763v4.6712h-19.7423z"/><path d="m128.677 63.2983c1.762 0 2.996-.4113 3.701-1.2339s1.117-1.9683 1.234-3.4372c.177-1.4689.265-3.1729.265-5.1119v-18.244c0-.9988.029-1.9977.088-2.9966.059-1.0576.147-2.174.264-3.3491-.999.0588-2.056.1175-3.173.1763-1.116 0-2.144.0294-3.084.0881v-4.6711c2.644 0 4.73-.1176 6.257-.3526 1.587-.2938 2.791-.6169 3.614-.9695.881-.3525 1.527-.7344 1.939-1.1457h3.349v34.0201c0 1.0577-.03 2.1447-.088 3.261-.059 1.0577-.147 2.1447-.265 3.2611.94-.0588 1.881-.0882 2.821-.0882.998-.0587 1.909-.1175 2.732-.1763v4.6712h-19.654zm9.342-49.3557c-1.528 0-2.82-.5582-3.878-1.6745-1.058-1.1752-1.586-2.58534-1.586-4.23053 0-1.64518.558-3.02597 1.674-4.14235 1.117-1.17514 2.38-1.76271 3.79-1.76271 1.528 0 2.791.58757 3.79 1.76271 1.057 1.11638 1.586 2.49717 1.586 4.14235 0 1.64519-.529 3.05533-1.586 4.23053-.999 1.1163-2.262 1.6745-3.79 1.6745z"/><path d="m172.364 68.4102c-1.469 0-2.967-.2057-4.495-.617-1.469-.3525-2.82-1.087-4.054-2.2034-1.234-1.1751-2.203-2.8497-2.908-5.0237s-1.058-5.053-1.058-8.6372l.176-24.0609h-6.522v-4.9356c1.587-.0587 3.202-.6463 4.848-1.7627 1.645-1.1164 3.084-2.6147 4.318-4.4949s2.086-3.9073 2.556-6.0813h4.143v12.3389h13.572v4.583l-13.572.1763-.177 23.5321c0 2.2328.177 4.2011.529 5.9051.411 1.6452 1.058 2.9378 1.939 3.8779.94.8814 2.203 1.322 3.79 1.322 1.351 0 2.732-.4113 4.142-1.2338 1.469-.8226 2.85-2.174 4.143-4.0543l2.996 2.6441c-1.41 2.0565-2.82 3.6723-4.23 4.8474-1.41 1.1752-2.762 2.0271-4.055 2.556-1.292.5875-2.467.9401-3.525 1.0576-1.058.1762-1.91.2644-2.556.2644z"/><path d="m211.627 68.4102c-4.113 0-7.815-.9401-11.105-2.8204-3.232-1.9389-5.788-4.6417-7.668-8.1084-1.88-3.5254-2.82-7.6678-2.82-12.4271 0-4.1129.911-7.9615 2.732-11.5457 1.88-3.5841 4.495-6.4632 7.844-8.6372 3.349-2.2328 7.227-3.3491 11.634-3.3491 2.468 0 4.789.3819 6.963 1.1457 2.232.7639 4.201 1.9684 5.905 3.6136 1.762 1.5864 3.143 3.6723 4.142 6.2576.999 2.5265 1.498 5.6112 1.498 9.2542l-30.318.5288c0 3.9954.441 7.5502 1.322 10.6643.94 3.1141 2.438 5.5232 4.495 7.2271 2.056 1.704 4.73 2.5559 8.02 2.5559 1.587 0 3.261-.2644 5.024-.7932 1.821-.5876 3.525-1.4102 5.112-2.4678 1.645-1.0576 3.026-2.3209 4.142-3.7898l2.732 2.3797c-1.763 2.644-3.79 4.7299-6.081 6.2576-2.292 1.4689-4.642 2.4971-7.051 3.0847-2.35.6463-4.524.9695-6.522.9695zm-10.841-30.6711h20.36c0-2.2327-.324-4.2305-.97-5.9932-.587-1.8214-1.528-3.261-2.82-4.3186-1.293-1.0576-2.938-1.5864-4.936-1.5864-3.114 0-5.67.9988-7.668 2.9966-1.997 1.939-3.319 4.9062-3.966 8.9016z"/><path d="m245.032 68.4102c-1.587 0-2.938-.5876-4.055-1.7627-1.057-1.1752-1.586-2.6147-1.586-4.3187 0-1.6451.558-3.0553 1.675-4.2304 1.175-1.2339 2.497-1.8509 3.966-1.8509 1.586 0 2.908.617 3.966 1.8509 1.057 1.1751 1.586 2.5853 1.586 4.2304 0 1.704-.558 3.1435-1.674 4.3187-1.058 1.1751-2.351 1.7627-3.878 1.7627z"/><path d="m283.536 63.1221c1.939-.1175 3.32-.5288 4.143-1.2339.881-.7051 1.439-1.7627 1.674-3.1729s.353-3.2022.353-5.3762v-36.6643c0-1.2926.029-2.5265.088-3.7017.059-1.2338.117-2.2915.176-3.17282-.999.05876-2.086.11752-3.261.17627s-2.233.11755-3.173.17625v-4.84742c3.467-.05875 6.992-.08813 10.577-.08813 3.584-.05876 7.227-.08814 10.928-.08814 5.523 0 10.195.67571 14.014 2.02711 3.878 1.29265 6.845 3.29038 8.902 5.99318 2.115 2.6441 3.202 5.9932 3.26 10.0474.059 2.2915-.352 4.6712-1.233 7.139-.882 2.409-2.38 4.6711-4.495 6.7864-2.116 2.0565-4.995 3.731-8.638 5.0237-3.584 1.2926-8.108 1.939-13.572 1.939-.588.0587-1.264.0881-2.027.0881-.706 0-1.44-.0294-2.204-.0881v11.105c0 1.5864-.029 3.026-.088 4.3186 0 1.2339-.059 2.2328-.176 2.9966.822-.0587 1.704-.1175 2.644-.1763.94-.0587 1.851-.0881 2.732-.0881.94-.0587 1.792-.1175 2.556-.1763v4.9356h-23.18zm15.512-23.7084c.999.1175 1.851.2056 2.556.2644h2.644c3.291 0 6.199-.6169 8.726-1.8508 2.526-1.2339 4.494-3.026 5.905-5.3763 1.41-2.3503 2.115-5.1412 2.115-8.3728 0-2.8203-.441-5.1706-1.322-7.0508-.823-1.939-1.998-3.4373-3.526-4.4949-1.469-1.1164-3.172-1.9096-5.111-2.3797-1.939-.47004-3.996-.70507-6.17-.70507-1.763 0-3.055.35255-3.878 1.05767-.822.705-1.351 1.7333-1.586 3.0847s-.353 3.0847-.353 5.2z"/><path d="m355.559 68.4102c-3.29 0-6.022-.617-8.196-1.8509-2.115-1.2339-3.702-3.261-4.76-6.0813-1.057-2.8791-1.586-6.6689-1.586-11.3694v-13.8373c0-.9988 0-2.0271 0-3.0847.059-1.1164.176-2.2034.353-3.261-.999.0588-2.057.1175-3.173.1763-1.117 0-2.116.0294-2.997.0881v-4.6711h2.115c2.938 0 5.142-.2645 6.611-.7933 1.468-.5288 2.497-1.087 3.084-1.6745h3.349v26.8812c0 4.6418.647 8.1084 1.939 10.3999 1.293 2.2916 3.467 3.4079 6.522 3.3492 1.998 0 3.908-.5876 5.729-1.7627 1.88-1.1752 3.408-2.5559 4.583-4.1424v-20.888c0-1.2927.03-2.4972.088-3.6136.059-1.1751.177-2.2915.353-3.3491-1.058.0588-2.145.1175-3.261.1763-1.117 0-2.145.0294-3.085.0881v-4.6711h2.556c2.585 0 4.612-.2645 6.081-.7933s2.527-1.087 3.173-1.6745h3.349l-.088 32.4337c0 .9401-.029 2.2328-.088 3.878-.059 1.5864-.147 2.9966-.264 4.2305.999-.0588 2.027-.1176 3.084-.1763 1.117-.0588 2.145-.0882 3.085-.0882v4.6712h-14.013c-.118-.9401-.235-1.8215-.353-2.644-.059-.8226-.147-1.6159-.264-2.3797-1.822 1.704-3.937 3.2023-6.346 4.4949-2.409 1.2927-4.936 1.939-7.58 1.939z"/><path d="m392.798 13.6782c0-.9988 0-1.9977 0-2.9966.059-1.05759.147-2.17397.264-3.34911-1.057.05876-2.144.11752-3.261.17628-1.057 0-2.056.02937-2.996.08813v-4.67117c2.644 0 4.759-.11751 6.345-.35253 1.587-.29379 2.791-.61695 3.614-.96949.881-.35254 1.528-.734464 1.939-1.145763h3.261v26.088053c1.763-1.6452 3.731-2.8791 5.905-3.7017 2.233-.8814 4.554-1.322 6.963-1.322 3.643 0 6.904.9107 9.783 2.7321 2.937 1.8215 5.229 4.4068 6.874 7.7559 1.704 3.3492 2.556 7.3153 2.556 11.8983 0 4.8768-1.028 9.1661-3.085 12.8677-1.997 3.7017-4.671 6.5808-8.02 8.6373-3.349 1.9977-7.11 2.9966-11.281 2.9966-1.88 0-4.025-.3526-6.434-1.0576-2.35-.7051-4.495-2.1447-6.434-4.3187l-2.291 3.9661h-3.878zm9.166 39.6609c0 2.7615.441 4.9062 1.322 6.4338.881 1.4689 1.998 2.5266 3.349 3.1729 1.41.5876 2.879.8813 4.407.8813 2.761.0588 5.082-.705 6.962-2.2915 1.881-1.5864 3.291-3.731 4.231-6.4338.999-2.7616 1.498-5.8757 1.498-9.3424 0-3.5254-.44-6.6982-1.322-9.5186-.881-2.8203-2.233-5.053-4.054-6.6982-1.821-1.704-4.113-2.5266-6.875-2.4678-1.821 0-3.584.4113-5.288 1.2339-1.645.8226-3.055 1.9389-4.23 3.3491z"/><path d="m440.137 63.2983c1.763 0 2.997-.4113 3.702-1.2339s1.116-1.9683 1.234-3.4372c.176-1.4689.264-3.1729.264-5.1119v-39.8371c0-.9988 0-1.9977 0-2.9966.059-1.05759.147-2.17397.265-3.34911-.999.05876-2.057.11752-3.173.17628-1.116 0-2.115.02937-2.997.08813v-4.67117c2.644 0 4.73-.11751 6.258-.35253 1.586-.29379 2.791-.61695 3.613-.96949.882-.35254 1.528-.734464 1.939-1.145763h3.35v55.613253c0 1.0577-.03 2.1447-.089 3.261-.058 1.0577-.146 2.1447-.264 3.2611.94-.0588 1.88-.0882 2.82-.0882.999-.0587 1.91-.1175 2.733-.1763v4.6712h-19.655z"/><path d="m466.327 63.2983c1.763 0 2.997-.4113 3.702-1.2339s1.116-1.9683 1.234-3.4372c.176-1.4689.264-3.1729.264-5.1119v-18.244c0-.9988.03-1.9977.088-2.9966.059-1.0576.147-2.174.265-3.3491-.999.0588-2.057.1175-3.173.1763-1.116 0-2.145.0294-3.085.0881v-4.6711c2.644 0 4.73-.1176 6.258-.3526 1.586-.2938 2.791-.6169 3.613-.9695.882-.3525 1.528-.7344 1.939-1.1457h3.35v34.0201c0 1.0577-.03 2.1447-.089 3.261-.058 1.0577-.147 2.1447-.264 3.2611.94-.0588 1.88-.0882 2.82-.0882.999-.0587 1.91-.1175 2.733-.1763v4.6712h-19.655zm9.343-49.3557c-1.528 0-2.821-.5582-3.878-1.6745-1.058-1.1752-1.587-2.58534-1.587-4.23053 0-1.64518.558-3.02597 1.675-4.14235 1.116-1.17514 2.38-1.76271 3.79-1.76271 1.527 0 2.791.58757 3.79 1.76271 1.057 1.11638 1.586 2.49717 1.586 4.14235 0 1.64519-.529 3.05533-1.586 4.23053-.999 1.1163-2.263 1.6745-3.79 1.6745z"/><path d="m511.179 68.4102c-2.761 0-5.317-.3819-7.668-1.1458-2.35-.7051-4.23-1.557-5.64-2.5559l.264 2.9085h-4.671l-.441-15.1593h3.702c.118 2.174.793 4.1424 2.027 5.9051s2.82 3.1435 4.759 4.1423c1.998.9989 4.143 1.4983 6.434 1.4983 1.352 0 2.674-.2056 3.966-.6169 1.293-.4701 2.38-1.1458 3.261-2.0271.882-.9401 1.322-2.0859 1.322-3.4373 0-1.4689-.47-2.6734-1.41-3.6136-.881-.9988-2.115-1.8802-3.701-2.644-1.528-.7639-3.291-1.5277-5.289-2.2915-1.762-.7051-3.554-1.4396-5.376-2.2034-1.762-.7638-3.408-1.6746-4.935-2.7322-1.528-1.0576-2.733-2.3503-3.614-3.8779-.881-1.5865-1.322-3.5255-1.322-5.817 0-1.3514.265-2.7909.793-4.3186.529-1.5864 1.381-3.026 2.556-4.3186 1.175-1.3514 2.762-2.4384 4.76-3.261 1.997-.8814 4.465-1.322 7.403-1.322 1.586 0 3.349.2644 5.288.7932 1.998.5288 3.849 1.4395 5.553 2.7322l-.089-3.0848h4.672v15.5118h-3.79c-.177-2.0565-.735-3.9661-1.675-5.7288-.881-1.7627-2.144-3.2022-3.79-4.3186-1.645-1.1164-3.643-1.6746-5.993-1.6746-2.291 0-4.172.5876-5.64 1.7627-1.411 1.1164-2.116 2.5266-2.116 4.2305 0 1.704.529 3.0848 1.587 4.1424 1.116 1.0576 2.556 1.9683 4.318 2.7322 1.763.7638 3.673 1.5277 5.729 2.2915 2.468.9989 4.789 2.0859 6.963 3.261s3.936 2.6441 5.288 4.4068c1.351 1.7627 2.027 3.9954 2.027 6.6982 0 2.9379-.764 5.4057-2.292 7.4034-1.468 1.939-3.378 3.3785-5.728 4.3186-2.351.9401-4.848 1.4102-7.492 1.4102z"/><path d="m561.392 63.2983c1.763 0 2.997-.4113 3.702-1.2339.764-.8226 1.204-1.9683 1.322-3.4372.176-1.4689.264-3.1729.264-5.1119l-.088-12.3389c0-4.6418-.734-8.1084-2.203-10.3999-1.41-2.3503-3.702-3.4961-6.875-3.4373-1.939.0587-3.848.5288-5.729 1.4101-1.821.8814-3.349 1.9978-4.583 3.3492v23.9727c0 1.0577-.029 2.1447-.088 3.261-.058 1.0577-.147 2.1447-.264 3.2611.94-.0588 1.88-.0882 2.82-.0882.999-.0587 1.91-.1175 2.732-.1763v4.6712h-19.654v-3.7017c1.763 0 2.997-.4113 3.702-1.2339s1.146-1.9683 1.322-3.4372.264-3.1729.264-5.1119v-39.8371c0-.9988 0-1.9977 0-2.9966.059-1.05759.147-2.17397.265-3.34911-.999.05876-2.057.11752-3.173.17628-1.117 0-2.145.02937-3.085.08813v-4.67117c2.644 0 4.759-.11751 6.346-.35253 1.586-.29379 2.791-.61695 3.613-.96949.882-.35254 1.528-.734464 1.939-1.145763h3.261v26.616853c1.293-1.0576 2.733-1.9978 4.319-2.8204 1.586-.8225 3.202-1.4689 4.847-1.9389 1.704-.5288 3.291-.7932 4.76-.7932 5.229 0 8.96 1.5864 11.193 4.7593 2.291 3.1728 3.467 8.1378 3.525 14.8948v14.8948c0 1.0577-.029 2.1447-.088 3.261 0 1.0577-.088 2.1447-.264 3.2611.94-.0588 1.909-.0882 2.908-.0882.999-.0587 1.91-.1175 2.732-.1763v4.6712h-19.742z"/><path d="m594.13 68.4102c-1.587 0-2.938-.5876-4.055-1.7627-1.057-1.1752-1.586-2.6147-1.586-4.3187 0-1.6451.558-3.0553 1.675-4.2304 1.175-1.2339 2.497-1.8509 3.966-1.8509 1.586 0 2.908.617 3.966 1.8509 1.057 1.1751 1.586 2.5853 1.586 4.2304 0 1.704-.558 3.1435-1.674 4.3187-1.058 1.1751-2.351 1.7627-3.878 1.7627z"/><path d="m654.316 9.18333c-1.881.05876-3.261.47006-4.143 1.23387-.881.7051-1.439 1.7627-1.674 3.1729-.235 1.3514-.353 3.1435-.353 5.3762v36.2236c0 1.5864-.029 3.026-.088 4.3186 0 1.2339-.059 2.2328-.176 2.9966.999-.1175 2.086-.1763 3.261-.1763 1.234-.0587 2.291-.1175 3.173-.1762v4.8474h-21.682v-3.8779c1.939-.1175 3.32-.5288 4.143-1.2339.881-.7051 1.439-1.7627 1.674-3.1729s.353-3.2022.353-5.3762v-36.6643c0-1.2926.029-2.5265.088-3.7017.059-1.2338.117-2.2915.176-3.17282-.999.05876-2.086.11752-3.261.17627s-2.233.11755-3.173.17625v-4.84742h21.682z"/><path d="m677.85 68.4102c-1.469 0-2.967-.2057-4.495-.617-1.468-.3525-2.82-1.087-4.054-2.2034-1.234-1.1751-2.203-2.8497-2.908-5.0237s-1.058-5.053-1.058-8.6372l.176-24.0609h-6.522v-4.9356c1.587-.0587 3.203-.6463 4.848-1.7627s3.085-2.6147 4.319-4.4949c1.233-1.8802 2.085-3.9073 2.555-6.0813h4.143v12.3389h13.573v4.583l-13.573.1763-.177 23.5321c0 2.2328.177 4.2011.529 5.9051.412 1.6452 1.058 2.9378 1.939 3.8779.94.8814 2.204 1.322 3.79 1.322 1.352 0 2.732-.4113 4.142-1.2338 1.469-.8226 2.85-2.174 4.143-4.0543l2.996 2.6441c-1.41 2.0565-2.82 3.6723-4.23 4.8474-1.41 1.1752-2.762 2.0271-4.054 2.556-1.293.5875-2.468.9401-3.526 1.0576-1.057.1762-1.909.2644-2.556.2644z"/><path d="m697.9 23.7256-.882-19.83038h8.021l-.793 19.83038z"/><path d="m732.12 68.4102c-2.762 0-5.318-.3819-7.668-1.1458-2.35-.7051-4.231-1.557-5.641-2.5559l.265 2.9085h-4.672l-.44-15.1593h3.701c.118 2.174.794 4.1424 2.028 5.9051 1.233 1.7627 2.82 3.1435 4.759 4.1423 1.998.9989 4.142 1.4983 6.434 1.4983 1.351 0 2.673-.2056 3.966-.6169 1.292-.4701 2.379-1.1458 3.261-2.0271.881-.9401 1.322-2.0859 1.322-3.4373 0-1.4689-.47-2.6734-1.41-3.6136-.882-.9988-2.116-1.8802-3.702-2.644-1.528-.7639-3.29-1.5277-5.288-2.2915-1.763-.7051-3.555-1.4396-5.376-2.2034-1.763-.7638-3.408-1.6746-4.936-2.7322s-2.732-2.3503-3.614-3.8779c-.881-1.5865-1.322-3.5255-1.322-5.817 0-1.3514.265-2.7909.794-4.3186.528-1.5864 1.381-3.026 2.556-4.3186 1.175-1.3514 2.761-2.4384 4.759-3.261 1.998-.8814 4.465-1.322 7.403-1.322 1.587 0 3.349.2644 5.288.7932 1.998.5288 3.849 1.4395 5.553 2.7322l-.088-3.0848h4.671v15.5118h-3.79c-.176-2.0565-.734-3.9661-1.674-5.7288-.882-1.7627-2.145-3.2022-3.79-4.3186s-3.643-1.6746-5.993-1.6746c-2.292 0-4.172.5876-5.641 1.7627-1.41 1.1164-2.115 2.5266-2.115 4.2305 0 1.704.528 3.0848 1.586 4.1424 1.116 1.0576 2.556 1.9683 4.319 2.7322 1.762.7638 3.672 1.5277 5.729 2.2915 2.467.9989 4.788 2.0859 6.962 3.261s3.937 2.6441 5.288 4.4068c1.352 1.7627 2.027 3.9954 2.027 6.6982 0 2.9379-.763 5.4057-2.291 7.4034-1.469 1.939-3.379 3.3785-5.729 4.3186s-4.847 1.4102-7.491 1.4102z"/><path d="m778.78 67v-3.8779c1.939-.1175 3.32-.5288 4.143-1.2339.881-.7051 1.439-1.7627 1.674-3.1729s.353-3.2022.353-5.3762v-36.6643c0-1.2926.029-2.5265.088-3.7017.059-1.2338.117-2.2915.176-3.17282-.999.05876-2.086.11752-3.261.17627s-2.233.11755-3.173.17625v-4.84742h21.682v3.87795c-1.881.05876-3.261.47006-4.143 1.23387-.881.7051-1.439 1.7627-1.674 3.1729-.235 1.3514-.353 3.1435-.353 5.3762v36.488c0 1.5864-.029 2.9966-.088 4.2305 0 1.1751-.059 2.1446-.176 2.9085l14.895-.1763c3.643-.0588 6.433-1.2339 8.372-3.5254 1.939-2.3503 2.909-6.052 2.909-11.1051h3.966l-.529 19.2135z"/><path d="m829.627 63.2983c1.762 0 2.996-.4113 3.701-1.2339.706-.8226 1.117-1.9683 1.234-3.4372.177-1.4689.265-3.1729.265-5.1119v-18.244c0-.9988.029-1.9977.088-2.9966.059-1.0576.147-2.174.264-3.3491-.999.0588-2.056.1175-3.173.1763-1.116 0-2.144.0294-3.084.0881v-4.6711c2.644 0 4.73-.1176 6.257-.3526 1.587-.2938 2.791-.6169 3.614-.9695.881-.3525 1.527-.7344 1.939-1.1457h3.349v34.0201c0 1.0577-.03 2.1447-.088 3.261-.059 1.0577-.147 2.1447-.265 3.2611.94-.0588 1.881-.0882 2.821-.0882.999-.0587 1.909-.1175 2.732-.1763v4.6712h-19.654zm9.342-49.3557c-1.528 0-2.82-.5582-3.878-1.6745-1.057-1.1752-1.586-2.58534-1.586-4.23053 0-1.64518.558-3.02597 1.674-4.14235 1.117-1.17514 2.38-1.76271 3.79-1.76271 1.528 0 2.791.58757 3.79 1.76271 1.057 1.11638 1.586 2.49717 1.586 4.14235 0 1.64519-.529 3.05533-1.586 4.23053-.999 1.1163-2.262 1.6745-3.79 1.6745z"/><path d="m872.191 67.2644-13.044-29.349c-.881-1.9977-1.557-3.6429-2.027-4.9356-.411-1.2926-.705-2.3796-.881-3.261-.118-.9401-.235-1.7333-.353-2.3796l-3.613.2644v-4.6712h17.715v3.6136c-1.587.0587-2.615.4994-3.085 1.322s-.587 1.9096-.352 3.261c.293 1.2926.734 2.7028 1.322 4.2305l6.081 14.1016c.47 1.0576.911 2.1446 1.322 3.261.47 1.1164.94 2.2621 1.41 3.4373h.088c.353-.9989.705-2.0271 1.058-3.0848.411-1.1163.793-2.174 1.146-3.1728l5.993-16.4813c.47-1.4102.94-2.6147 1.41-3.6135.529-.9989.97-1.8509 1.322-2.556l-5.641.3526v-4.6712h14.895v3.6136c-1.292.1175-2.409.6757-3.349 1.6745-.94.9989-1.821 2.3503-2.644 4.0542-.764 1.704-1.586 3.6136-2.468 5.7288l-11.457 29.2609z"/><path d="m921.528 68.4102c-4.113 0-7.814-.9401-11.105-2.8204-3.231-1.9389-5.787-4.6417-7.668-8.1084-1.88-3.5254-2.82-7.6678-2.82-12.4271 0-4.1129.911-7.9615 2.732-11.5457 1.881-3.5841 4.495-6.4632 7.844-8.6372 3.35-2.2328 7.228-3.3491 11.634-3.3491 2.468 0 4.789.3819 6.963 1.1457 2.233.7639 4.201 1.9684 5.905 3.6136 1.763 1.5864 3.143 3.6723 4.142 6.2576.999 2.5265 1.499 5.6112 1.499 9.2542l-30.319.5288c0 3.9954.441 7.5502 1.322 10.6643.94 3.1141 2.439 5.5232 4.495 7.2271 2.057 1.704 4.73 2.5559 8.02 2.5559 1.587 0 3.261-.2644 5.024-.7932 1.822-.5876 3.525-1.4102 5.112-2.4678 1.645-1.0576 3.026-2.3209 4.142-3.7898l2.732 2.3797c-1.762 2.644-3.789 4.7299-6.081 6.2576-2.291 1.4689-4.642 2.4971-7.051 3.0847-2.35.6463-4.524.9695-6.522.9695zm-10.84-30.6711h20.359c0-2.2327-.323-4.2305-.97-5.9932-.587-1.8214-1.527-3.261-2.82-4.3186s-2.938-1.5864-4.935-1.5864c-3.115 0-5.671.9988-7.668 2.9966-1.998 1.939-3.32 4.9062-3.966 8.9016z"/><path d="m953.787 47.2577-3.437-36.3998c-.118-1.64519.264-3.20224 1.146-4.67117.94-1.52767 2.409-2.29151 4.406-2.29151 2.057 0 3.496.76384 4.319 2.29151.881 1.46893 1.234 3.02598 1.058 4.67117l-3.349 36.3998zm2.027 21.1525c-1.469 0-2.761-.5876-3.878-1.7627-1.116-1.1752-1.674-2.6147-1.674-4.3187 0-1.6451.558-3.0553 1.674-4.2304 1.175-1.2339 2.497-1.8509 3.966-1.8509 1.587 0 2.879.617 3.878 1.8509 1.058 1.1751 1.587 2.5853 1.587 4.2304 0 1.704-.558 3.1435-1.675 4.3187-1.116 1.1751-2.409 1.7627-3.878 1.7627z"/></g></svg>