<svg fill="none" height="517" viewBox="0 0 1508 517" width="1508" xmlns="http://www.w3.org/2000/svg"><path d="m-45 193.898c100.1365 46.518 204.716 78.763 313.641 96.842 78.152 12.971 282.286 0 291.786-143.989 1.581-23.948-1-89.4704-67-126.9999-58-32.9805-115.151-13.36096-142.5 5.5-27.349 18.861-45.02 44.5-54 73-16.368 51.9509 9.224 115.1249 30.651 161.8739 57.091 124.562 177.308 219.357 311.975 246.789 142.618 29.052 292.036-9.369 430.687-41.444 100.16-23.173 196-36.724 298.23-15.203 48.04 10.115 94.93 24.91 139.96 44.112" stroke="#000" stroke-linecap="round" stroke-width="3"/></svg>