<?xml version="1.0" standalone="no"?>
<!DOCTYPE svg PUBLIC "-//W3C//DTD SVG 20010904//EN"
 "http://www.w3.org/TR/2001/REC-SVG-20010904/DTD/svg10.dtd">
<svg version="1.0" xmlns="http://www.w3.org/2000/svg"
 width="1280.000000pt" height="1280.000000pt" viewBox="0 0 1280.000000 1280.000000"
 preserveAspectRatio="xMidYMid meet">
<metadata>
Created by potrace 1.14, written by Peter Selinger 2001-2017
</metadata>
<g transform="translate(0.000000,1280.000000) scale(0.100000,-0.100000)"
fill="#000000" stroke="none">
<path d="M6028 12795 c-2 -1 -57 -6 -123 -9 -66 -4 -138 -8 -160 -11 -22 -2
-74 -6 -115 -10 -41 -3 -88 -8 -105 -10 -16 -2 -52 -7 -80 -10 -45 -5 -121
-16 -210 -31 -16 -2 -46 -7 -65 -10 -81 -13 -382 -77 -470 -100 -228 -60 -546
-163 -634 -205 -22 -11 -43 -19 -48 -19 -16 0 -266 -116 -418 -194 -278 -142
-641 -373 -895 -568 -56 -44 -260 -211 -290 -239 -235 -215 -396 -378 -527
-530 -25 -30 -58 -67 -73 -84 -14 -16 -45 -55 -68 -85 -23 -30 -44 -57 -47
-60 -3 -3 -18 -23 -35 -45 -16 -22 -33 -44 -38 -50 -29 -35 -218 -309 -293
-425 -50 -78 -154 -250 -154 -255 0 -3 -11 -23 -24 -44 -48 -76 -162 -296
-251 -486 -152 -323 -296 -718 -393 -1080 -28 -105 -50 -193 -57 -225 -2 -8
-8 -33 -14 -55 -27 -100 -86 -416 -107 -565 -2 -19 -6 -48 -9 -65 -3 -16 -7
-48 -10 -70 -3 -22 -7 -53 -10 -70 -2 -16 -7 -66 -10 -110 -4 -44 -8 -87 -10
-95 -26 -106 -26 -902 0 -1180 2 -19 6 -73 9 -120 4 -47 9 -92 11 -100 2 -8 7
-42 10 -75 3 -33 8 -71 10 -85 7 -49 18 -125 20 -145 50 -358 191 -941 317
-1310 44 -130 144 -395 177 -467 15 -35 36 -83 47 -108 64 -151 266 -540 347
-667 15 -24 27 -45 27 -48 0 -4 55 -90 123 -193 113 -171 322 -457 397 -542
17 -19 54 -63 83 -97 68 -79 351 -360 447 -443 41 -36 77 -67 80 -70 3 -3 48
-39 100 -81 495 -394 1095 -721 1670 -912 307 -102 600 -176 885 -222 17 -3
57 -9 90 -15 33 -6 74 -12 90 -15 43 -7 308 -39 415 -50 351 -36 1138 -41
1440 -10 19 2 62 6 95 9 106 9 315 35 410 51 73 11 266 48 295 55 19 5 46 11
60 14 40 7 312 76 340 85 14 5 66 22 115 37 88 26 327 111 389 138 390 169
688 329 1001 540 106 71 347 250 425 315 30 25 63 54 75 63 170 141 385 352
575 564 38 41 198 237 240 293 14 18 34 45 46 59 290 375 640 970 801 1362 19
47 38 90 42 95 4 6 20 44 35 85 16 41 40 104 54 140 81 210 255 778 278 910 3
14 9 39 14 55 10 32 64 291 76 365 4 25 8 47 9 50 2 7 18 110 21 135 1 11 3
20 4 20 2 0 3 9 15 115 4 36 9 67 10 70 2 3 6 46 10 95 3 50 8 97 10 105 26
99 26 827 1 1105 -19 195 -34 321 -51 415 -2 14 -7 45 -10 70 -18 133 -105
530 -156 715 -75 270 -184 598 -272 820 -17 44 -32 82 -33 85 0 3 -12 31 -27
64 -15 32 -27 60 -27 62 0 8 -43 100 -126 271 -135 276 -292 546 -472 813
-133 197 -400 541 -531 685 -160 176 -438 438 -616 582 -76 61 -163 128 -185
143 -13 8 -35 24 -49 36 -41 33 -226 156 -341 226 -180 111 -338 198 -535 293
-427 208 -806 333 -1340 441 -29 6 -244 42 -285 48 -157 22 -256 34 -345 40
-38 3 -97 8 -130 11 -33 3 -89 8 -125 11 -71 6 -836 14 -842 9z"/>
</g>
</svg>
